<svg width="546" height="541" viewBox="0 0 546 541" fill="none" xmlns="http://www.w3.org/2000/svg">
<rect width="546" height="541" fill="#FA7248"/>
<rect x="132.673" y="268.13" width="288" height="180" rx="40" transform="rotate(-30.9386 132.673 268.13)" stroke="#FF7B4B" stroke-width="20"/>
<path d="M238.067 193.297L277.74 169.517C279.099 168.431 279.862 166.744 279.388 165.429C279.136 164.662 278.521 164.069 277.711 163.765C265.604 159.307 253.506 154.831 241.401 150.366C250.591 144.853 259.786 139.346 268.975 133.836C270.586 132.864 271.508 130.979 271.043 129.574C270.737 128.474 269.671 127.759 268.392 127.628C237.04 122.663 205.679 117.721 174.335 112.74C173.458 112.569 172.475 112.736 171.543 113.086L170.553 113.679C168.499 115.215 168.111 118.091 169.979 119.144C182.545 126.969 195.141 134.76 207.709 142.583C199.751 147.364 191.779 152.122 183.825 156.908C182.046 157.963 181.171 160.097 181.884 161.529C182.222 162.302 183.034 162.716 183.768 163.146C200.588 173.205 217.417 183.255 234.234 193.315C235.251 193.939 236.751 193.87 238.067 193.297Z" fill="#FF7B4B"/>
<path d="M340.891 364.841L380.564 341.061C382.162 340.375 384.01 340.496 384.946 341.535C385.503 342.118 385.737 342.94 385.623 343.798C383.848 356.577 382.094 369.356 380.325 382.136C389.519 376.63 398.71 371.117 407.901 365.61C409.518 364.648 411.615 364.723 412.635 365.796C413.46 366.584 413.588 367.86 413.101 369.05C402.702 399.041 392.278 429.029 381.897 459.02C381.633 459.875 381.023 460.663 380.276 461.32L379.286 461.913C376.962 463.001 374.243 461.987 374.195 459.844C373.217 445.073 372.283 430.291 371.308 415.52C363.34 420.284 355.387 425.072 347.416 429.831C345.647 430.903 343.353 430.669 342.426 429.365C341.903 428.703 341.921 427.792 341.888 426.941C340.945 407.366 340.014 387.787 339.068 368.213C338.997 367.022 339.765 365.731 340.891 364.841Z" fill="#FF7B4B"/>
<rect x="276.917" y="236.466" width="100" height="20" transform="rotate(-30.9386 276.917 236.466)" fill="#FF7B4B"/>
<rect x="311.363" y="293.933" width="100" height="20" transform="rotate(-30.9386 311.363 293.933)" fill="#FF7B4B"/>
<rect x="293.369" y="263.913" width="100" height="20" transform="rotate(-30.9386 293.369 263.913)" fill="#FF7B4B"/>
<circle cx="238.314" cy="271.263" r="15" transform="rotate(-30.9386 238.314 271.263)" fill="#FF7B4B"/>
<circle cx="238.314" cy="271.263" r="15" transform="rotate(-30.9386 238.314 271.263)" fill="#FF7B4B"/>
<circle cx="272.76" cy="328.73" r="15" transform="rotate(-30.9386 272.76 328.73)" fill="#FF7B4B"/>
<circle cx="272.76" cy="328.73" r="15" transform="rotate(-30.9386 272.76 328.73)" fill="#FF7B4B"/>
<circle cx="255.28" cy="299.568" r="15" transform="rotate(-30.9386 255.28 299.568)" fill="#FF7B4B"/>
<circle cx="255.28" cy="299.568" r="15" transform="rotate(-30.9386 255.28 299.568)" fill="#FF7B4B"/>
</svg>
